<svg xmlns="http://www.w3.org/2000/svg" width="2027" height="1439" viewBox="0 0 2027 1439">
  <image href="../../../../tmp/page-005-source/layout.png" width="2027" height="1439"/>
  <rect x="0" y="956" width="2027" height="483" fill="#e8bd77"/>
  <path d="M0 1140H2027M0 1270H2027M930 956V1439M1074 956V1439" stroke="#9c713e" stroke-width="7" opacity=".6"/>
  <g opacity=".58" stroke="#4b3829" stroke-width="10"><path d="M90 1210Q120 1120 150 1210V1300H90ZM355 1200Q390 1095 425 1200V1300H355ZM610 1215Q645 1110 680 1215V1300H610ZM810 1200Q845 1090 880 1200V1300H810Z" fill="#90603f"/><path d="M120 1120L92 1030M390 1095L430 1005M645 1110L605 1020M845 1090L890 1005"/></g>
  <path d="M110 1360 L230 1135 L340 1360 M245 1360 L390 1075 L510 1360 M600 1360 L710 1115 L810 1360" fill="none" stroke="#6b482d" stroke-width="18"/>
  <g stroke="#24211d" stroke-width="12" stroke-linejoin="round">
    <circle cx="250" cy="1080" r="43" fill="#9b5c36"/><path d="M207 1130 Q250 1100 293 1130 L315 1285 L187 1285Z" fill="#a65f40"/><path d="M205 1165L145 1255M295 1165L360 1215" fill="none"/><path d="M210 1285L175 1380M290 1285L325 1380" fill="none"/>
    <circle cx="470" cy="1110" r="42" fill="#8f5133"/><path d="M425 1150 Q470 1125 515 1150 L540 1290 L400 1290Z" fill="#6e8f64"/><path d="M420 1170L350 1235M520 1170L605 1230" fill="none"/><path d="M435 1290L400 1380M505 1290L540 1380" fill="none"/>
    <circle cx="700" cy="1095" r="42" fill="#a4643c"/><path d="M655 1135 Q700 1110 745 1135 L765 1285 L635 1285Z" fill="#d49c45"/><path d="M652 1165L590 1215M748 1165L810 1215" fill="none"/><path d="M665 1285L635 1380M735 1285L765 1380" fill="none"/>
    <circle cx="1450" cy="1060" r="51" fill="#b46e46"/><path d="M1395 1110 Q1450 1080 1505 1110 L1530 1320 L1370 1320Z" fill="#0d6d54"/><path d="M1395 1140L1335 1200M1505 1140L1570 1200" fill="none"/><path d="M1400 1320L1380 1400M1500 1320L1520 1400" fill="none"/>
    <circle cx="1710" cy="1070" r="52" fill="#a5633b"/><path d="M1655 1120 Q1710 1090 1765 1120 L1790 1325 L1630 1325Z" fill="#edc877"/><path d="M1652 1150L1590 1200M1768 1150L1830 1200" fill="none"/><path d="M1660 1325L1640 1400M1760 1325L1780 1400" fill="none"/>
  </g>
  <g font-family="sans-serif" font-size="31" fill="#1f2933" font-weight="700"><text x="65" y="1005">PHƯƠNG ÁN 1 — VISAKHA NHÌN CÔNG TRƯỜNG</text><text x="1180" y="1020">VISAKHA + NALINI</text><text x="120" y="1395">TIỀN/TRUNG CẢNH RÕ DÁNG · HẬU CẢNH CHỈ LÀ DÁNG LƯNG, VAI VÀ CÁN CUỐC</text></g>
  <rect x="953" y="958" width="122" height="479" fill="#ed7777" opacity=".45"/><text x="962" y="1000" font-family="sans-serif" font-size="25" fill="#7a1d1d" transform="rotate(90 962 1000)">GÁY — CHỈ ĐẤT NỀN</text>
</svg>
