<svg xmlns="http://www.w3.org/2000/svg" width="1621" height="1151" viewBox="0 0 810.709 575.433"><rect width="810.709" height="575.433" fill="#f8f1e5"/><rect x="405.354" width="405.355" height="575.433" fill="#b5d3d7"/><rect x="405.354" width="405.355" height="575.433" fill="none" stroke="#27a9e1" stroke-width="4" stroke-dasharray="12 8"/><path d="M425 575 L425 395 Q570 360 810 405 L810 575Z" fill="#9faf78"/><path d="M505 410 L542 375 L580 410Z M610 420 L652 382 L695 420Z M710 410 L748 375 L790 410Z" fill="#856b4c" stroke="#e2c88e" stroke-width="4"/><path d="M540 375 Q520 315 548 265 M650 382 Q630 315 656 245" fill="none" stroke="#eef2e5" stroke-width="13" opacity=".8"/><path d="M455 575 Q465 285 475 60 M490 575 Q500 340 510 150" stroke="#557c5e" stroke-width="15"/><path d="M450 200 L510 155 M448 275 L515 230" stroke="#557c5e" stroke-width="11"/><path d="M425 400 Q585 375 810 405" fill="none" stroke="#dcebd6" stroke-width="9"/><rect x="450" y="15" width="300" height="78" rx="7" fill="#28545a" opacity=".88"/><text x="464" y="40" fill="#fff" font-family="sans-serif" font-size="18" font-weight="700">Focus: khói sớm trên mái nhà xa</text><text x="464" y="63" fill="#f7ffff" font-family="sans-serif" font-size="15">Camera: từ rìa cánh đồng nhìn qua tre</text><text x="464" y="84" fill="#f7ffff" font-family="sans-serif" font-size="15">Dư âm: một thế giới đang thức dậy</text></svg>
