<svg xmlns="http://www.w3.org/2000/svg" width="1217" height="864" viewBox="0 0 1217 864">
  <rect width="1217" height="864" fill="#f4ede1"/>
  <text x="52" y="72" font-family="sans-serif" font-size="32" font-weight="700" fill="#392e25">PAGE 23 · AMBUSH OPTION A</text>
  <text x="52" y="108" font-family="sans-serif" font-size="19" fill="#5d4b3b">H1 over-the-shoulder sau vai đạo sĩ · H2 đạo sĩ tỉnh lại dưới đáy vực</text>
  <rect x="0" y="321" width="542" height="543" fill="#708a62"/>
  <path d="M0 780 C135 640 360 600 542 500 L542 864 L0 864Z" fill="#c7a96f"/>
  <path d="M0 520 C125 430 210 420 330 470" fill="none" stroke="#3f5c3b" stroke-width="42"/>
  <path d="M98 720 C120 585 210 520 300 550 L340 864 L70 864Z" fill="#512f25"/>
  <circle cx="225" cy="542" r="35" fill="#c58e65"/>
  <path d="M258 520 L510 390" stroke="#5d3925" stroke-width="24" stroke-linecap="round"/>
  <path d="M365 410 L510 390" stroke="#9a754d" stroke-width="9"/>
  <path d="M380 864 C385 650 420 565 510 540 L542 864Z" fill="#9a6538"/>
  <circle cx="482" cy="535" r="32" fill="#c58e65"/>
  <text x="18" y="350" font-family="sans-serif" font-size="17" font-weight="700" fill="#392e25">H1 · GẬY ĐANG HẠ, CHƯA CHẠM</text>
  <text x="18" y="820" font-family="sans-serif" font-size="15" fill="#392e25">đạo sĩ foreground trái · Ngài quay lưng phía trước</text>
  <rect x="572" y="321" width="73" height="543" fill="#706057"/>
  <text x="580" y="848" font-family="sans-serif" font-size="14" fill="white">GÁY</text>
  <rect x="675" y="321" width="542" height="543" fill="#4b4948"/>
  <path d="M675 321 H850 L950 864 H675Z" fill="#303033"/>
  <path d="M1217 321 H1050 L970 864 H1217Z" fill="#302f31"/>
  <path d="M900 321 H1035 L980 450 H945Z" fill="#bfd9e5"/>
  <path d="M710 864 C718 685 795 625 895 665 L915 864Z" fill="#98633a"/>
  <circle cx="800" cy="625" r="62" fill="#3a2b20"/>
  <path d="M760 735 C805 700 858 710 885 755" fill="none" stroke="#c58e65" stroke-width="25"/>
  <path d="M735 760 L865 700" stroke="#9a754d" stroke-width="12"/>
  <text x="692" y="350" font-family="sans-serif" font-size="17" font-weight="700" fill="#f4ede1">H2 · TỈNH LẠI MỘT MÌNH</text>
  <text x="692" y="820" font-family="sans-serif" font-size="15" fill="#f4ede1">mặt + tay ôm sườn · khe trời nhỏ ở cao bên phải</text>
</svg>
