<svg xmlns="http://www.w3.org/2000/svg" width="1217" height="864" viewBox="0 0 1217 864">
<rect width="1217" height="864" fill="#f4ede1"/><text x="52" y="80" font-family="sans-serif" font-size="34" font-weight="700" fill="#392e25">PAGE 23 · OPTION 2 — BÌNH THẢN / CHOÁNG VÁNG</text><text x="52" y="118" font-family="sans-serif" font-size="20" fill="#5d4b3b">H1 eye-level 3/4 tại hông Ngài · H2 low-angle close-medium cùng đạo sĩ</text>
<rect x="0" y="321" width="542" height="543" fill="#708a62"/><path d="M0 780C160 610 378 600 542 505V864H0Z" fill="#c7a96f"/><path d="M36 530L156 475" stroke="#4e3320" stroke-width="25"/><circle cx="130" cy="547" r="36" fill="#3a2b20"/><path d="M42 785C44 645 86 595 176 585L209 850H42Z" fill="#965f35"/><path d="M290 864C295 570 366 450 510 440C546 570 542 710 542 864Z" fill="#512f25"/><circle cx="437" cy="456" r="74" fill="#c58e65"/><rect x="14" y="340" width="125" height="30" rx="7" fill="#fffaf0"/><text x="24" y="361" font-family="sans-serif" font-size="16" font-weight="700">Focus: Ngài</text><rect x="14" y="378" width="180" height="30" rx="7" fill="#fffaf0"/><text x="24" y="399" font-family="sans-serif" font-size="16" font-weight="700">Camera: eye-level 3/4</text><rect x="14" y="816" width="190" height="30" rx="7" fill="#fffaf0"/><text x="24" y="837" font-family="sans-serif" font-size="16" font-weight="700">Để ngoài: kết quả</text>
<rect x="572" y="321" width="73" height="543" fill="#706057"/><text x="582" y="848" font-family="sans-serif" font-size="14" fill="white">GÁY</text><rect x="675" y="321" width="542" height="543" fill="#4b4948"/><path d="M675 321H850L938 864H675Z" fill="#303033"/><path d="M1217 321H1060L978 864H1217Z" fill="#302f31"/><path d="M916 321H1042L989 465H944Z" fill="#bfd9e5"/><circle cx="800" cy="610" r="85" fill="#3a2b20"/><path d="M713 850C712 687 765 644 864 664C913 710 920 782 907 850Z" fill="#976139"/><path d="M748 729C790 691 850 706 873 750" fill="none" stroke="#c58e65" stroke-width="27"/><rect x="690" y="340" width="140" height="30" rx="7" fill="#fffaf0"/><text x="700" y="361" font-family="sans-serif" font-size="16" font-weight="700">Focus: mặt</text><rect x="690" y="378" width="188" height="30" rx="7" fill="#fffaf0"/><text x="700" y="399" font-family="sans-serif" font-size="16" font-weight="700">Camera: low-angle 3/4</text><rect x="690" y="816" width="190" height="30" rx="7" fill="#fffaf0"/><text x="700" y="837" font-family="sans-serif" font-size="16" font-weight="700">Để ngoài: Ngài, gậy</text>
</svg>
